<svg width="20" height="20" viewBox="0 0 20 20" fill="none" xmlns="http://www.w3.org/2000/svg">
<g clip-path="url(#clip0_755_5376)">
<path d="M7.49967 5.83301H4.99967C4.55765 5.83301 4.13372 6.0086 3.82116 6.32116C3.5086 6.63372 3.33301 7.05765 3.33301 7.49967V14.9997C3.33301 15.4417 3.5086 15.8656 3.82116 16.1782C4.13372 16.4907 4.55765 16.6663 4.99967 16.6663H12.4997C12.9417 16.6663 13.3656 16.4907 13.6782 16.1782C13.9907 15.8656 14.1663 15.4417 14.1663 14.9997V12.4997" stroke="#F2F1F7" stroke-width="1.5" stroke-linecap="round" stroke-linejoin="round"/>
<path d="M7.5 12.4995H10L17.0833 5.4162C17.4149 5.08468 17.6011 4.63505 17.6011 4.1662C17.6011 3.69736 17.4149 3.24773 17.0833 2.9162C16.7518 2.58468 16.3022 2.39844 15.8333 2.39844C15.3645 2.39844 14.9149 2.58468 14.5833 2.9162L7.5 9.99954V12.4995Z" stroke="#F2F1F7" stroke-width="1.5" stroke-linecap="round" stroke-linejoin="round"/>
<path d="M13.333 4.16699L15.833 6.66699" stroke="#F2F1F7" stroke-width="1.5" stroke-linecap="round" stroke-linejoin="round"/>
</g>
<defs>
<clipPath id="clip0_755_5376">
<rect width="20" height="20" fill="white"/>
</clipPath>
</defs>
</svg>
