<svg width="21" height="20" viewBox="0 0 21 20" fill="none" xmlns="http://www.w3.org/2000/svg">
<g clip-path="url(#clip0_1000_344)">
<path d="M12.1667 6.66634C13.0871 6.66634 13.8333 5.92015 13.8333 4.99967C13.8333 4.0792 13.0871 3.33301 12.1667 3.33301C11.2462 3.33301 10.5 4.0792 10.5 4.99967C10.5 5.92015 11.2462 6.66634 12.1667 6.66634Z" stroke="#737185" stroke-width="1.25" stroke-linecap="round" stroke-linejoin="round"/>
<path d="M3.8335 5H10.5002" stroke="#737185" stroke-width="1.25" stroke-linecap="round" stroke-linejoin="round"/>
<path d="M13.8335 5H17.1668" stroke="#737185" stroke-width="1.25" stroke-linecap="round" stroke-linejoin="round"/>
<path d="M7.16667 11.6663C8.08714 11.6663 8.83333 10.9201 8.83333 9.99967C8.83333 9.0792 8.08714 8.33301 7.16667 8.33301C6.24619 8.33301 5.5 9.0792 5.5 9.99967C5.5 10.9201 6.24619 11.6663 7.16667 11.6663Z" stroke="#737185" stroke-width="1.25" stroke-linecap="round" stroke-linejoin="round"/>
<path d="M3.8335 10H5.50016" stroke="#737185" stroke-width="1.25" stroke-linecap="round" stroke-linejoin="round"/>
<path d="M8.8335 10H17.1668" stroke="#737185" stroke-width="1.25" stroke-linecap="round" stroke-linejoin="round"/>
<path d="M14.6667 16.6663C15.5871 16.6663 16.3333 15.9201 16.3333 14.9997C16.3333 14.0792 15.5871 13.333 14.6667 13.333C13.7462 13.333 13 14.0792 13 14.9997C13 15.9201 13.7462 16.6663 14.6667 16.6663Z" stroke="#737185" stroke-width="1.25" stroke-linecap="round" stroke-linejoin="round"/>
<path d="M3.8335 15H13.0002" stroke="#737185" stroke-width="1.25" stroke-linecap="round" stroke-linejoin="round"/>
<path d="M16.3335 15H17.1668" stroke="#737185" stroke-width="1.25" stroke-linecap="round" stroke-linejoin="round"/>
</g>
<defs>
<clipPath id="clip0_1000_344">
<rect width="20" height="20" fill="white" transform="translate(0.5)"/>
</clipPath>
</defs>
</svg>
