<svg width="16" height="16" viewBox="0 0 16 16" fill="none" xmlns="http://www.w3.org/2000/svg">
<path d="M13.8334 5.25879L9.38923 1.80213C8.99922 1.49872 8.51919 1.33398 8.02506 1.33398C7.53094 1.33398 7.05091 1.49872 6.6609 1.80213L2.2159 5.25879C1.94877 5.46653 1.73264 5.73256 1.58403 6.03658C1.43541 6.3406 1.35824 6.67456 1.3584 7.01296V13.013C1.3584 13.455 1.53399 13.8789 1.84655 14.1915C2.15911 14.504 2.58304 14.6796 3.02507 14.6796H13.0251C13.4671 14.6796 13.891 14.504 14.2036 14.1915C14.5161 13.8789 14.6917 13.455 14.6917 13.013V7.01296C14.6917 6.32712 14.3751 5.67963 13.8334 5.25879Z" stroke="#1B5DE0" stroke-width="1.5" stroke-linecap="round" stroke-linejoin="round"/>
</svg>
