<svg width="18" height="19" viewBox="0 0 18 19" fill="none" xmlns="http://www.w3.org/2000/svg">
<g clip-path="url(#clip0_751_3751)">
<path d="M9 11C10.2426 11 11.25 9.99264 11.25 8.75C11.25 7.50736 10.2426 6.5 9 6.5C7.75736 6.5 6.75 7.50736 6.75 8.75C6.75 9.99264 7.75736 11 9 11Z" stroke="#1B5DE0" stroke-width="1.5" stroke-linecap="round" stroke-linejoin="round"/>
<path d="M13.2428 12.9925L10.0605 16.1748C9.77924 16.4558 9.39794 16.6136 9.00038 16.6136C8.60282 16.6136 8.22151 16.4558 7.94025 16.1748L4.75725 12.9925C3.91817 12.1534 3.34675 11.0843 3.11527 9.92043C2.88378 8.75655 3.00262 7.55017 3.45676 6.45383C3.91089 5.35749 4.67993 4.42044 5.66661 3.76116C6.6533 3.10189 7.81333 2.75 9 2.75C10.1867 2.75 11.3467 3.10189 12.3334 3.76116C13.3201 4.42044 14.0891 5.35749 14.5433 6.45383C14.9974 7.55017 15.1162 8.75655 14.8847 9.92043C14.6533 11.0843 14.0818 12.1534 13.2428 12.9925Z" stroke="#1B5DE0" stroke-width="1.5" stroke-linecap="round" stroke-linejoin="round"/>
</g>
<defs>
<clipPath id="clip0_751_3751">
<rect width="18" height="18" fill="white" transform="translate(0 0.5)"/>
</clipPath>
</defs>
</svg>
