<svg width="20" height="21" viewBox="0 0 20 21" fill="none" xmlns="http://www.w3.org/2000/svg">
  <g clip-path="url(#clip0_755_5048)">
    <path d="M10 12.167C11.3807 12.167 12.5 11.0477 12.5 9.66699C12.5 8.28628 11.3807 7.16699 10 7.16699C8.61929 7.16699 7.5 8.28628 7.5 9.66699C7.5 11.0477 8.61929 12.167 10 12.167Z" stroke="#1B5DE0" stroke-width="1.5" stroke-linecap="round" stroke-linejoin="round"/>
    <path d="M14.7138 14.3806L11.178 17.9164C10.8655 18.2286 10.4418 18.404 10.0001 18.404C9.55836 18.404 9.13469 18.2286 8.82218 17.9164L5.28551 14.3806C4.3532 13.4482 3.71829 12.2603 3.46108 10.9671C3.20388 9.67394 3.33592 8.33352 3.84051 7.11536C4.34511 5.89721 5.19959 4.85604 6.29591 4.12351C7.39223 3.39098 8.68115 3 9.99968 3C11.3182 3 12.6071 3.39098 13.7034 4.12351C14.7998 4.85604 15.6542 5.89721 16.1588 7.11536C16.6634 8.33352 16.7955 9.67394 16.5383 10.9671C16.2811 12.2603 15.6462 13.4482 14.7138 14.3806Z" stroke="#1B5DE0" stroke-width="1.5" stroke-linecap="round" stroke-linejoin="round"/>
  </g>
  <defs>
    <clipPath id="clip0_755_5048">
      <rect width="20" height="20" fill="white" transform="translate(0 0.5)"/>
    </clipPath>
  </defs>
</svg>
