<svg width="159" height="156" viewBox="0 0 159 156" fill="none" xmlns="http://www.w3.org/2000/svg">
<path fill-rule="evenodd" clip-rule="evenodd" d="M79.4508 4C121.121 4 154.902 37.1309 154.902 77.9999C154.902 118.869 121.121 152 79.4508 152C37.7805 152 4 118.869 4 77.9999C4 37.1309 37.7805 4 79.4508 4Z" stroke="#FFCB04" stroke-width="8" stroke-miterlimit="22.9256"/>
<path d="M60.8218 109.251C62.0991 109.599 63.1829 109.831 64.073 109.986C64.9632 110.141 65.7569 110.219 66.4729 110.219C69.9564 110.219 72.8593 108.806 75.2009 105.961C77.5428 103.136 78.7039 99.5551 78.7039 95.2008C78.7039 91.2722 77.7364 88.1175 75.7816 85.7177C73.8463 83.3181 71.3305 82.1182 68.2341 82.1182C67.363 82.1182 66.3181 82.3308 65.0988 82.7762C63.8603 83.2019 62.4474 83.8793 60.8218 84.7889V109.251ZM43.0557 123.456V40.0834L60.8218 37.645V72.1513C63.0861 70.9902 65.2729 70.1192 67.363 69.5194C69.4725 68.9387 71.5047 68.6483 73.4592 68.6483C80.4069 68.6483 86.0388 71.1061 90.3546 76.0412C94.6701 80.9762 96.8184 87.4015 96.8184 95.3362C96.8184 103.735 94.2638 110.49 89.1353 115.638C84.0261 120.766 77.2719 123.34 68.9307 123.34C67.8664 123.34 66.6859 123.282 65.3503 123.147C64.0345 123.011 62.5442 122.817 60.8798 122.546L54.416 121.018L43.0557 123.456Z" fill="#FFCB04"/>
<path d="M98.4356 87.0874V66.6122H91.0039V53.1427H98.4356V37.8151L116.55 35.3765V53.1427H128.626V66.6122H116.55V88.3068C116.55 92.9126 117.169 96.2606 118.427 98.3121C119.685 100.363 122.046 102.279 125.491 104.002L105.287 105.395C102.751 104.176 100.99 102.376 99.9644 99.9765C98.9386 97.5767 98.4356 93.2803 98.4356 87.0874Z" fill="#FFCB04"/>
</svg>
