<svg width="158" height="48" viewBox="0 0 158 48" fill="none" xmlns="http://www.w3.org/2000/svg">
<path d="M157.15 0H0V48H157.15V0Z" fill="#FFCB04"/>
<path d="M54.2065 31.2344C54.5236 31.3208 54.7926 31.3785 55.0136 31.4169C55.2346 31.4554 55.4316 31.4746 55.6094 31.4746C56.4742 31.4746 57.1948 31.1238 57.7761 30.4176C58.3574 29.7162 58.6457 28.8274 58.6457 27.7464C58.6457 26.7711 58.4055 25.9881 57.9202 25.3923C57.4398 24.7966 56.8152 24.4987 56.0466 24.4987C55.8304 24.4987 55.5709 24.5516 55.2683 24.6621C54.9608 24.7678 54.6101 24.9359 54.2065 25.1618V31.2344ZM49.7961 34.7607V14.0638L54.2065 13.4585V22.0245C54.7686 21.7362 55.3115 21.5201 55.8304 21.3711C56.354 21.227 56.8585 21.1549 57.3437 21.1549C59.0684 21.1549 60.4665 21.7651 61.5379 22.9902C62.6092 24.2153 63.1425 25.8103 63.1425 27.78C63.1425 29.8651 62.5083 31.5418 61.2352 32.8198C59.9669 34.0929 58.2901 34.7319 56.2195 34.7319C55.9553 34.7319 55.6622 34.7174 55.3307 34.6838C55.004 34.6502 54.6341 34.6022 54.2209 34.5349L52.6163 34.1554L49.7961 34.7607ZM69.2103 26.6319L74.7064 26.4637V26.2667C74.7064 25.5989 74.471 25.0512 74.005 24.6236C73.5342 24.196 72.9432 23.9798 72.2322 23.9798C71.4395 23.9798 70.7717 24.2105 70.2384 24.6765C69.7052 25.1425 69.3641 25.7959 69.2103 26.6319ZM77.6178 29.6297L77.1278 33.526C76.263 33.9344 75.4126 34.2419 74.5767 34.4388C73.7408 34.6358 72.9 34.7319 72.0448 34.7319C69.9309 34.7319 68.2302 34.1265 66.9331 32.911C65.6407 31.6956 64.9921 30.1101 64.9921 28.1596C64.9921 26.1226 65.6984 24.4026 67.1156 22.9998C68.5329 21.597 70.2576 20.8955 72.285 20.8955C74.0194 20.8955 75.4415 21.4096 76.556 22.4377C77.6659 23.4658 78.2232 24.7966 78.2232 26.43C78.2232 26.6799 78.204 27.0834 78.1655 27.6407L78.1511 27.7224L77.7571 28.2941L69.1142 28.5344C69.1815 29.3895 69.537 30.0861 70.1808 30.6194C70.8294 31.1527 71.6461 31.4169 72.6261 31.4169C73.3228 31.4169 74.0915 31.268 74.9418 30.9653C75.7874 30.6674 76.681 30.2207 77.6178 29.6297ZM85.199 34.1554H80.7598V21.472H84.8915L84.9732 23.6964C85.4776 22.8076 86.0733 22.1638 86.7508 21.7603C87.4282 21.3568 88.2737 21.1549 89.2874 21.1549H89.6381V25.8823H89.1769H88.6821C87.3081 25.8823 86.3808 26.0409 85.91 26.3532C85.4344 26.6703 85.199 27.4246 85.199 28.6256V34.1554ZM96.417 34.1554H91.9779V21.472H96.1095L96.1912 23.6964C96.6957 22.8076 97.2914 22.1638 97.9688 21.7603C98.6462 21.3568 99.4918 21.1549 100.505 21.1549H100.856V25.8823H100.395H99.9001C98.5261 25.8823 97.5989 26.0409 97.1281 26.3532C96.6524 26.6703 96.417 27.4246 96.417 28.6256V34.1554ZM106.857 27.8137C106.857 28.8947 107.087 29.7643 107.553 30.4224C108.019 31.0854 108.615 31.4169 109.336 31.4169C110.061 31.4169 110.652 31.0854 111.118 30.4176C111.584 29.7498 111.815 28.885 111.815 27.8137C111.815 26.752 111.584 25.8872 111.118 25.2146C110.652 24.5468 110.061 24.2105 109.336 24.2105C108.615 24.2105 108.019 24.542 107.553 25.2098C107.087 25.8775 106.857 26.7423 106.857 27.8137ZM102.36 27.8041C102.36 25.7911 103.018 24.1288 104.334 22.822C105.656 21.5201 107.318 20.8667 109.336 20.8667C111.363 20.8667 113.035 21.5201 114.356 22.822C115.677 24.1288 116.34 25.7911 116.34 27.8041C116.34 29.8219 115.677 31.489 114.356 32.7958C113.035 34.1073 111.363 34.7607 109.336 34.7607C107.328 34.7607 105.665 34.1073 104.344 32.7958C103.023 31.489 102.36 29.8219 102.36 27.8041Z" fill="#403200"/>
<path d="M118.596 31.8451V29.1012H117.6V27.2962H118.596V25.2422L121.023 24.9155V27.2962H122.641V29.1012H121.023V32.0084C121.023 32.6257 121.106 33.0743 121.275 33.3492C121.443 33.6241 121.76 33.8809 122.221 34.1116L119.514 34.2984C119.174 34.135 118.938 33.8938 118.8 33.5722C118.663 33.2507 118.596 32.6749 118.596 31.8451ZM125.556 30.0815L128.523 29.9907V29.8844C128.523 29.524 128.396 29.2283 128.145 28.9975C127.89 28.7667 127.571 28.65 127.188 28.65C126.76 28.65 126.399 28.7744 126.111 29.026C125.823 29.2776 125.639 29.6303 125.556 30.0815ZM130.095 31.6998L129.83 33.803C129.363 34.0235 128.904 34.1895 128.453 34.2958C128.002 34.4021 127.548 34.454 127.086 34.454C125.945 34.454 125.027 34.1272 124.327 33.4711C123.629 32.815 123.279 31.9591 123.279 30.9062C123.279 29.8067 123.66 28.8782 124.426 28.1209C125.191 27.3636 126.122 26.985 127.216 26.985C128.152 26.985 128.92 27.2625 129.522 27.8175C130.121 28.3725 130.422 29.0909 130.422 29.9726C130.422 30.1075 130.411 30.3253 130.39 30.6261L130.383 30.6702L130.17 30.9789L125.504 31.1085C125.541 31.5701 125.733 31.9462 126.08 32.2341C126.43 32.5219 126.871 32.6646 127.4 32.6646C127.776 32.6646 128.191 32.5842 128.65 32.4207C129.107 32.26 129.589 32.0188 130.095 31.6998ZM137.763 33.7538C137.343 33.9924 136.928 34.1688 136.521 34.2828C136.114 34.3969 135.694 34.454 135.263 34.454C134.122 34.454 133.186 34.1116 132.455 33.427C131.721 32.7449 131.355 31.8787 131.355 30.8284C131.355 29.7418 131.749 28.8263 132.538 28.0898C133.326 27.3533 134.314 26.985 135.505 26.985C135.94 26.985 136.368 27.0343 136.783 27.1328C137.198 27.2314 137.6 27.3792 137.984 27.5789L137.717 29.7081C137.343 29.4799 136.983 29.3061 136.635 29.1868C136.288 29.0675 135.966 29.0079 135.668 29.0079C135.131 29.0079 134.685 29.1712 134.33 29.498C133.974 29.8248 133.798 30.2293 133.798 30.7143C133.798 31.233 133.962 31.648 134.291 31.9617C134.62 32.2755 135.053 32.4312 135.59 32.4312C135.925 32.4312 136.283 32.3585 136.661 32.2159C137.042 32.0706 137.483 31.8372 137.984 31.5131L137.763 33.7538ZM141.762 34.1428H139.382V23.2972L141.762 22.9705V28.261C142.097 27.872 142.455 27.5841 142.839 27.3948C143.22 27.2055 143.635 27.1095 144.081 27.1095C144.805 27.1095 145.354 27.317 145.728 27.7319C146.104 28.1468 146.291 28.7511 146.291 29.5499V34.1428H143.925V30.219C143.925 29.8585 143.853 29.5888 143.705 29.4072C143.56 29.2231 143.342 29.1324 143.051 29.1324C142.639 29.1324 142.32 29.2724 142.097 29.5499C141.874 29.83 141.762 30.2345 141.762 30.7662V34.1428Z" fill="#403200"/>
<path fill-rule="evenodd" clip-rule="evenodd" d="M25.5773 7.20654C35.4462 7.20654 43.4465 15.053 43.4465 24.7321C43.4465 34.4113 35.4462 42.2577 25.5773 42.2577C15.7084 42.2577 7.70813 34.4113 7.70813 24.7321C7.70813 15.053 15.7084 7.20654 25.5773 7.20654Z" stroke="#403200" stroke-width="2.58993" stroke-miterlimit="22.9256"/>
<path d="M21.166 32.1327C21.4685 32.2152 21.7251 32.2702 21.936 32.3069C22.1468 32.3435 22.3347 32.3618 22.5043 32.3618C23.3293 32.3618 24.0168 32.0273 24.5714 31.3535C25.126 30.6843 25.401 29.8364 25.401 28.8051C25.401 27.8747 25.1719 27.1276 24.7089 26.5592C24.2506 25.9909 23.6548 25.7067 22.9214 25.7067C22.7151 25.7067 22.4677 25.7571 22.1789 25.8626C21.8856 25.9634 21.551 26.1239 21.166 26.3393V32.1327ZM16.9584 35.4969V15.7516L21.166 15.1741V23.3463C21.7022 23.0713 22.2201 22.865 22.7151 22.7229C23.2147 22.5854 23.696 22.5167 24.1589 22.5167C25.8044 22.5167 27.1382 23.0987 28.1603 24.2675C29.1823 25.4363 29.6911 26.958 29.6911 28.8372C29.6911 30.8264 29.0861 32.426 27.8715 33.6452C26.6615 34.8598 25.0619 35.4694 23.0864 35.4694C22.8343 35.4694 22.5548 35.4556 22.2385 35.4236C21.9268 35.3915 21.5739 35.3456 21.1797 35.2815L19.6489 34.9194L16.9584 35.4969Z" fill="#403200"/>
<path d="M30.074 26.884V22.0348H28.314V18.8448H30.074V15.2148L34.364 14.6372V18.8448H37.224V22.0348H34.364V27.1728C34.364 28.2636 34.5107 29.0565 34.8086 29.5424C35.1066 30.0282 35.6657 30.482 36.4816 30.8899L31.6965 31.2199C31.0961 30.9312 30.679 30.5049 30.4361 29.9366C30.1932 29.3682 30.074 28.3507 30.074 26.884Z" fill="#403200"/>
</svg>
