<svg width="119" height="116" viewBox="0 0 119 116" fill="none" xmlns="http://www.w3.org/2000/svg">
<path fill-rule="evenodd" clip-rule="evenodd" d="M59.5002 2C91.0347 2 116.598 27.072 116.598 57.9999C116.598 88.928 91.0347 114 59.5002 114C27.9659 114 2.40234 88.928 2.40234 57.9999C2.40234 27.072 27.9659 2 59.5002 2Z" fill="white" stroke="#F2F1F7" stroke-width="3.78378" stroke-miterlimit="22.9256"/>
<path d="M45.4017 81.6493C46.3683 81.9129 47.1884 82.0885 47.8621 82.2058C48.5357 82.3229 49.1363 82.3815 49.6782 82.3815C52.3144 82.3815 54.5112 81.3125 56.2832 79.1595C58.0554 77.0213 58.9341 74.3118 58.9341 71.0167C58.9341 68.0436 58.2019 65.6563 56.7226 63.8402C55.258 62.0243 53.3542 61.1163 51.011 61.1163C50.3518 61.1163 49.5611 61.2772 48.6383 61.6143C47.7011 61.9364 46.6319 62.4491 45.4017 63.1374V81.6493ZM31.957 92.399V29.3062L45.4017 27.4609V53.5738C47.1152 52.6951 48.7701 52.036 50.3518 51.5821C51.9482 51.1426 53.486 50.9229 54.9651 50.9229C60.2228 50.9229 64.4848 52.7829 67.7508 56.5175C71.0166 60.2521 72.6424 65.1145 72.6424 71.1191C72.6424 77.4752 70.7092 82.5865 66.8281 86.4823C62.9617 90.3634 57.8504 92.3113 51.5381 92.3113C50.7327 92.3113 49.8393 92.2672 48.8287 92.1648C47.8329 92.0622 46.7051 91.9157 45.4456 91.7107L40.554 90.5537L31.957 92.399Z" fill="#F2F1F7"/>
<path d="M73.8681 64.8767V49.382H68.2441V39.1888H73.8681V27.5896L87.5761 25.7441V39.1888H96.7148V49.382H87.5761V65.7995C87.5761 69.285 88.0448 71.8186 88.9967 73.3711C89.9488 74.9234 91.7355 76.3733 94.3423 77.677L79.0526 78.7313C77.1339 77.8088 75.8013 76.4466 75.025 74.6307C74.2488 72.8146 73.8681 69.5633 73.8681 64.8767Z" fill="#F2F1F7"/>
</svg>
