<svg width="45" height="44" viewBox="0 0 45 44" fill="none" xmlns="http://www.w3.org/2000/svg">
<path fill-rule="evenodd" clip-rule="evenodd" d="M22.3921 2C33.6544 2 42.7843 10.9543 42.7843 22C42.7843 33.0457 33.6544 42 22.3921 42C11.1299 42 2 33.0457 2 22C2 10.9543 11.1299 2 22.3921 2Z" stroke="#FFCB04" stroke-width="2.58993" stroke-miterlimit="22.9256"/>
<path d="M17.3582 30.4455C17.7034 30.5397 17.9963 30.6024 18.2369 30.6443C18.4775 30.6861 18.692 30.707 18.8855 30.707C19.827 30.707 20.6116 30.3252 21.2444 29.5563C21.8774 28.7927 22.1912 27.825 22.1912 26.6482C22.1912 25.5864 21.9297 24.7337 21.4014 24.0851C20.8783 23.4366 20.1984 23.1123 19.3615 23.1123C19.1261 23.1123 18.8437 23.1698 18.5141 23.2901C18.1794 23.4052 17.7975 23.5883 17.3582 23.8341V30.4455ZM12.5565 34.2847V11.7516L17.3582 11.0925V20.4186C17.9701 20.1047 18.5612 19.8693 19.1261 19.7072C19.6962 19.5503 20.2454 19.4718 20.7737 19.4718C22.6514 19.4718 24.1736 20.1361 25.34 21.4699C26.5064 22.8037 27.087 24.5402 27.087 26.6847C27.087 28.9548 26.3966 30.7802 25.0105 32.1716C23.6296 33.5577 21.8042 34.2534 19.5498 34.2534C19.2621 34.2534 18.9431 34.2376 18.5821 34.201C18.2265 34.1644 17.8237 34.1121 17.3739 34.0389L15.6269 33.6257L12.5565 34.2847Z" fill="#FFCB04"/>
<path d="M27.5238 24.4557V18.9218H25.5153V15.2814H27.5238V11.1388L32.4195 10.4797V15.2814H35.6833V18.9218H32.4195V24.7852C32.4195 26.0301 32.5869 26.9349 32.9269 27.4894C33.2669 28.0438 33.905 28.5616 34.836 29.0272L29.3754 29.4037C28.6902 29.0742 28.2142 28.5878 27.937 27.9392C27.6598 27.2906 27.5238 26.1294 27.5238 24.4557Z" fill="#FFCB04"/>
</svg>
