<svg width="20" height="20" viewBox="0 0 20 20" fill="none" xmlns="http://www.w3.org/2000/svg">
<g clip-path="url(#clip0_800_4664)">
<path d="M4.16667 3.33301H7.5L9.16667 7.49967L7.08333 8.74967C7.9758 10.5593 9.44039 12.0239 11.25 12.9163L12.5 10.833L16.6667 12.4997V15.833C16.6667 16.275 16.4911 16.699 16.1785 17.0115C15.866 17.3241 15.442 17.4997 15 17.4997C11.7494 17.3021 8.68346 15.9218 6.38069 13.619C4.07792 11.3162 2.69754 8.25029 2.5 4.99967C2.5 4.55765 2.67559 4.13372 2.98816 3.82116C3.30072 3.5086 3.72464 3.33301 4.16667 3.33301Z" stroke="#FFCB04" stroke-width="1.5" stroke-linecap="round" stroke-linejoin="round"/>
<path d="M12.5 5.83301C12.942 5.83301 13.366 6.0086 13.6785 6.32116C13.9911 6.63372 14.1667 7.05765 14.1667 7.49967" stroke="#FFCB04" stroke-width="1.5" stroke-linecap="round" stroke-linejoin="round"/>
<path d="M12.5 2.5C13.8261 2.5 15.0979 3.02678 16.0355 3.96447C16.9732 4.90215 17.5 6.17392 17.5 7.5" stroke="#FFCB04" stroke-width="1.5" stroke-linecap="round" stroke-linejoin="round"/>
</g>
<defs>
<clipPath id="clip0_800_4664">
<rect width="20" height="20" fill="white"/>
</clipPath>
</defs>
</svg>
