<svg width="20" height="20" viewBox="0 0 20 20" fill="none" xmlns="http://www.w3.org/2000/svg">
  <g clip-path="url(#clip0_103_10914)">
    <path d="M10 11.6667C11.3807 11.6667 12.5 10.5475 12.5 9.16675C12.5 7.78604 11.3807 6.66675 10 6.66675C8.61929 6.66675 7.5 7.78604 7.5 9.16675C7.5 10.5475 8.61929 11.6667 10 11.6667Z" stroke="#737185" stroke-width="1.5" stroke-linecap="round" stroke-linejoin="round"/>
    <path d="M14.7143 13.8808L11.1785 17.4167C10.866 17.7289 10.4423 17.9042 10.0006 17.9042C9.55885 17.9042 9.13518 17.7289 8.82267 17.4167L5.286 13.8808C4.35368 12.9485 3.71878 11.7606 3.46157 10.4674C3.20437 9.17419 3.33641 7.83376 3.841 6.61561C4.3456 5.39745 5.20008 4.35628 6.2964 3.62376C7.39272 2.89123 8.68164 2.50024 10.0002 2.50024C11.3187 2.50024 12.6076 2.89123 13.7039 3.62376C14.8003 4.35628 15.6547 5.39745 16.1593 6.61561C16.6639 7.83376 16.796 9.17419 16.5388 10.4674C16.2816 11.7606 15.6466 12.9485 14.7143 13.8808Z" stroke="#737185" stroke-width="1.5" stroke-linecap="round" stroke-linejoin="round"/>
  </g>
  <defs>
    <clipPath id="clip0_103_10914">
      <rect width="20" height="20" fill="white"/>
    </clipPath>
  </defs>
</svg>
