<svg width="20" height="20" viewBox="0 0 20 20" fill="none" xmlns="http://www.w3.org/2000/svg">
  <g clip-path="url(#clip0_755_4937)">
    <path d="M2.5 17.4996L3.875 14.3329C2.82305 12.8397 2.35222 11.0138 2.55087 9.19803C2.74952 7.38226 3.60399 5.70139 4.95392 4.47087C6.30386 3.24036 8.05646 2.54479 9.88282 2.51469C11.7092 2.4846 13.4837 3.12205 14.8735 4.30742C16.2632 5.49279 17.1726 7.14459 17.431 8.95283C17.6893 10.7611 17.2789 12.6015 16.2768 14.1286C15.2746 15.6557 13.7495 16.7646 11.9878 17.2472C10.2261 17.7298 8.34886 17.5528 6.70833 16.7496L2.5 17.4996Z" stroke="white" stroke-width="1.7" stroke-linecap="round" stroke-linejoin="round"/>
    <path d="M7.5 8.33301C7.5 8.44351 7.5439 8.5495 7.62204 8.62764C7.70018 8.70578 7.80616 8.74967 7.91667 8.74967C8.02717 8.74967 8.13315 8.70578 8.21129 8.62764C8.28943 8.5495 8.33333 8.44351 8.33333 8.33301V7.49967C8.33333 7.38917 8.28943 7.28319 8.21129 7.20505C8.13315 7.12691 8.02717 7.08301 7.91667 7.08301C7.80616 7.08301 7.70018 7.12691 7.62204 7.20505C7.5439 7.28319 7.5 7.38917 7.5 7.49967V8.33301ZM7.5 8.33301C7.5 9.43808 7.93899 10.4979 8.72039 11.2793C9.50179 12.0607 10.5616 12.4997 11.6667 12.4997M11.6667 12.4997H12.5C12.6105 12.4997 12.7165 12.4558 12.7946 12.3776C12.8728 12.2995 12.9167 12.1935 12.9167 12.083C12.9167 11.9725 12.8728 11.8665 12.7946 11.7884C12.7165 11.7102 12.6105 11.6663 12.5 11.6663H11.6667C11.5562 11.6663 11.4502 11.7102 11.372 11.7884C11.2939 11.8665 11.25 11.9725 11.25 12.083C11.25 12.1935 11.2939 12.2995 11.372 12.3776C11.4502 12.4558 11.5562 12.4997 11.6667 12.4997Z" stroke="white" stroke-width="1.7" stroke-linecap="round" stroke-linejoin="round"/>
  </g>
  <defs>
    <clipPath id="clip0_755_4937">
      <rect width="20" height="20" fill="white"/>
    </clipPath>
  </defs>
</svg>
