<svg width="21" height="20" viewBox="0 0 21 20" fill="none" xmlns="http://www.w3.org/2000/svg">
<g clip-path="url(#clip0_1116_3950)">
<path d="M16.3334 7.25879L11.8892 3.80213C11.4992 3.49872 11.0192 3.33398 10.5251 3.33398C10.0309 3.33398 9.55091 3.49872 9.1609 3.80213L4.7159 7.25879C4.44877 7.46653 4.23264 7.73256 4.08403 8.03658C3.93541 8.3406 3.85824 8.67456 3.8584 9.01296V15.013C3.8584 15.455 4.03399 15.8789 4.34655 16.1915C4.65911 16.504 5.08304 16.6796 5.52507 16.6796H15.5251C15.9671 16.6796 16.391 16.504 16.7036 16.1915C17.0161 15.8789 17.1917 15.455 17.1917 15.013V9.01296C17.1917 8.32712 16.8751 7.67963 16.3334 7.25879Z" stroke="#605E70" stroke-width="1.25" stroke-linecap="round" stroke-linejoin="round"/>
<path d="M13.8337 12.5C11.992 13.6108 9.00699 13.6108 7.16699 12.5" stroke="#605E70" stroke-width="1.25" stroke-linecap="round" stroke-linejoin="round"/>
</g>
<defs>
<clipPath id="clip0_1116_3950">
<rect width="20" height="20" fill="white" transform="translate(0.5)"/>
</clipPath>
</defs>
</svg>
